<?xml version="1.0" encoding="UTF-8"?>
<svg version="1.1" xmlns="http://www.w3.org/2000/svg" width="675" height="135">
<path d="M0 0 C8.90925389 6.23477424 15.76697715 14.81128398 17.79296875 25.6796875 C18.40397967 35.31563026 18.70566964 44.06333048 13.79296875 52.6796875 C13.36886719 53.45699219 12.94476562 54.23429687 12.5078125 55.03515625 C7.73309185 62.97529059 0.60029902 68.86319408 -8.14453125 72.01953125 C-18.51374073 74.25473074 -30.91328932 74.17614537 -40.20703125 68.6796875 C-49.4235332 61.95231381 -56.14403584 54.02616227 -58.20703125 42.6796875 C-54.90703125 42.6796875 -51.60703125 42.6796875 -48.20703125 42.6796875 C-47.92730469 43.33195312 -47.64757812 43.98421875 -47.359375 44.65625 C-43.64067642 52.76325205 -39.64341741 57.30520158 -31.51953125 61.0546875 C-24.26496701 63.67867882 -16.68527989 63.99106949 -9.45703125 61.1171875 C-1.77957817 57.14609108 3.80525082 51.86637223 6.79296875 43.6796875 C9.23679843 35.70421633 8.43026517 27.36739748 4.984375 19.86328125 C1.31218075 13.13293179 -4.03940212 8.58303182 -11.25390625 5.92578125 C-20.55059058 3.34937455 -28.1251939 4.88965915 -36.39453125 9.4296875 C-43.27010939 14.93015001 -47.46142972 20.95167986 -49.20703125 29.6796875 C-45.24703125 29.6796875 -41.28703125 29.6796875 -37.20703125 29.6796875 C-37.14515625 30.9996875 -37.08328125 32.3196875 -37.01953125 33.6796875 C-36.42433741 38.9206999 -34.65728087 42.69647249 -31.20703125 46.6796875 C-26.51241645 50.09395281 -21.8262643 50.41613995 -16.20703125 49.6796875 C-11.48824437 47.98804692 -9.00120308 45.81920132 -6.20703125 41.6796875 C-4.38998033 36.22853473 -4.12502423 30.05969739 -6.70703125 24.8046875 C-9.34949016 20.9056747 -12.68957774 18.88278938 -17.20703125 17.6796875 C-21.77053084 17.19436294 -25.59190471 17.39492776 -29.26953125 20.3203125 C-30.55465127 21.59506865 -31.83595282 22.87368662 -33.11328125 24.15625 C-36.8172939 26.85133383 -40.8372128 26.2438239 -45.20703125 25.6796875 C-43.71031794 19.54316292 -40.5145573 15.05139084 -35.3984375 11.3828125 C-28.60140647 7.34844569 -21.98534732 6.84629649 -14.20703125 7.6796875 C-5.78388709 10.30309693 -1.04127813 15.2817182 3.60546875 22.4921875 C6.35408108 29.87004165 6.41589958 37.25521664 3.79296875 44.6796875 C0.68783943 50.65109004 -4.49337011 55.77233093 -10.50390625 58.859375 C-17.07727832 60.85418444 -26.32970876 61.0112688 -32.70703125 58.1796875 C-40.2865326 53.47346117 -43.96695277 47.11292414 -46.20703125 38.6796875 C-50.49703125 38.6796875 -54.78703125 38.6796875 -59.20703125 38.6796875 C-59.77263387 26.80203248 -58.07758832 16.96707604 -50.1796875 7.7109375 C-36.57930842 -6.29341324 -17.28958205 -10.3431482 0 0 Z " fill="#F3F3F4" transform="translate(536.20703125,36.3203125)"/>
<path d="M0 0 C4.05264618 -0.07526343 8.1050108 -0.12911541 12.15820312 -0.16479492 C13.53132226 -0.17969923 14.90439539 -0.20002997 16.27734375 -0.22631836 C29.3070764 -0.46919715 41.47831805 0.63006583 52 9 C61.14469487 18.32021684 64.2925177 28.61952974 64.31689453 41.35913086 C64.12590099 52.45208276 60.0123864 60.77082082 52.375 68.68359375 C44.81532972 75.70078769 36.27809044 78.16979524 26.171875 78.09765625 C25.42286926 78.0962413 24.67386353 78.09482635 23.90216064 78.09336853 C21.51806588 78.08778659 19.13406622 78.07523745 16.75 78.0625 C15.13020969 78.05748266 13.51041791 78.05292016 11.890625 78.04882812 C7.92704688 78.03782308 3.96353955 78.02057091 0 78 C-0.02312659 69.54232666 -0.0409167 61.08466644 -0.05181217 52.62696934 C-0.05704031 48.70011342 -0.06413669 44.77327906 -0.07543945 40.84643555 C-0.0862708 37.05985743 -0.09227736 33.2733001 -0.09487724 29.48670769 C-0.09673105 28.03895681 -0.10035081 26.59120712 -0.10573006 25.14346504 C-0.11294367 23.12242865 -0.11340808 21.10137152 -0.11352539 19.08032227 C-0.115746 17.92782486 -0.11796661 16.77532745 -0.12025452 15.58790588 C0 13 0 13 1 12 C4.8053484 11.7438418 8.62457575 11.81475217 12.4375 11.8125 C13.49388672 11.80025391 14.55027344 11.78800781 15.63867188 11.77539062 C26.10321286 11.75604767 35.84014057 12.46765224 43.87890625 19.6875 C49.51715464 25.52585324 51.52110796 31.53034097 52.375 39.5 C51.42311077 48.38429948 48.88931743 55.0694345 42 61 C32.7006426 67.08781462 24.52293473 66 13 66 C13 52.47 13 38.94 13 25 C15.97 25 18.94 25 22 25 C22 35.56 22 46.12 22 57 C32.10152485 54.46959577 32.10152485 54.46959577 38 52 C39.31068333 49.55711372 39.31068333 49.55711372 40 47 C40.495 46.01 40.495 46.01 41 45 C41.52448349 38.82723281 41.78888444 33.17814207 38 28 C28.66976312 20.8079424 23.84529556 22.72869977 10 22 C10 37.51 10 53.02 10 69 C30.03716819 69.20763308 30.03716819 69.20763308 47 60 C52.97077613 51.99810941 55.05639381 43.9354506 54 34 C52.27931901 26.42694296 49.11917549 19.93256732 43 15 C33.41790695 9.70057876 23.23880004 9.79279422 12.5625 9.4375 C11.35400391 9.39431641 10.14550781 9.35113281 8.90039062 9.30664062 C5.93369394 9.20110596 2.96692098 9.09899286 0 9 C0 6.03 0 3.06 0 0 Z " fill="#F4F4F5" transform="translate(161,31)"/>
<path d="M0 0 C3.89191627 -0.07544723 7.78353623 -0.12919723 11.67602539 -0.16479492 C13.63377902 -0.18689361 15.59133062 -0.2250566 17.54882812 -0.26367188 C31.25414559 -0.36829262 42.58016685 1.38124409 52.9296875 10.74609375 C60.05924333 18.10514172 64.04247325 28.3418075 64.25 38.5625 C64.07355487 49.37377419 60.85122064 58.60130289 54 67 C38.39578938 82.08039436 22.43491982 78 0 78 C0 56.22 0 34.44 0 12 C34.90160183 12 34.90160183 12 44 20 C50.15596343 26.69780862 51.46918279 33.80594648 51.31640625 42.73828125 C50.61069339 50.01322248 47.61449462 55.32125448 42 60 C32.69435121 67.08038495 25.01990319 66 13 66 C13 52.47 13 38.94 13 25 C15.97 25 18.94 25 22 25 C22 35.56 22 46.12 22 57 C31.40586073 55.08104593 31.40586073 55.08104593 38 50 C40.63117319 45.19130417 41.58467457 41.45696262 41 36 C39.17942998 30.13371883 36.87114644 27.45039539 32 24 C24.6993151 21.56643837 16.68599609 22.3842998 9 22 C9 37.51 9 53.02 9 69 C29.32226292 69.13966194 29.32226292 69.13966194 46.2421875 60.07421875 C52.57679513 52.59938175 54.58473871 44.30923382 53.8125 34.65625 C52.6070714 27.52413076 49.32197454 20.77785802 43.734375 16.10546875 C34.08004358 9.86658477 23.58817656 9.6750181 12.375 9.375 C10.58255859 9.31699219 10.58255859 9.31699219 8.75390625 9.2578125 C5.83608264 9.16444214 2.91825079 9.07866422 0 9 C0 6.03 0 3.06 0 0 Z " fill="#F5F5F6" transform="translate(560,31)"/>
<path d="M0 0 C6.55904493 4.62436261 11.78966524 11.81828549 14.3125 19.4375 C14.3125 20.4275 14.3125 21.4175 14.3125 22.4375 C10.45873733 22.58366325 6.60569449 22.67185912 2.75 22.75 C1.66396484 22.79189453 0.57792969 22.83378906 -0.54101562 22.87695312 C-7.7612421 22.98668301 -11.23829144 22.19915742 -16.6875 17.4375 C-23.45857985 15.18047338 -29.04360403 16.38773335 -35.421875 19.17578125 C-40.21218722 21.84348961 -43.21072071 26.13893088 -45.17578125 31.26171875 C-46.76645838 38.02513218 -46.80337806 45.14258419 -43.6875 51.4375 C-40.57064601 56.26817969 -36.25135508 59.29853601 -30.79296875 61.04296875 C-22.16731551 62.65927854 -14.38560728 61.60320339 -6.6875 57.4375 C-3.68478087 55.37563456 -3.68478087 55.37563456 -1.6875 53.4375 C-5.44832643 53.8044099 -7.68173678 54.4339534 -10.9375 56.4375 C-16.33394805 59.70157675 -22.62781942 60.05797115 -28.75 58.875 C-34.98793257 57.01122746 -41.27644858 53.05388376 -44.6875 47.4375 C-46.42945243 40.43661522 -45.98896155 33.86600627 -42.6875 27.4375 C-41.1490173 25.22792841 -39.54919028 23.39982218 -37.6875 21.4375 C-37.0275 21.7675 -36.3675 22.0975 -35.6875 22.4375 C-36.203125 23.5925 -36.71875 24.7475 -37.25 25.9375 C-38.99218921 30.63311472 -38.86649825 33.56430722 -37.6875 38.4375 C-35.20938785 43.21016043 -32.54872924 46.09690814 -27.6875 48.4375 C-22.77863526 49.22099958 -18.37480119 49.29565235 -14.125 46.5 C-12.36306639 45.01568193 -12.36306639 45.01568193 -10.6875 43.4375 C-8.83380389 43.35012355 -6.97682459 43.33051847 -5.12109375 43.33984375 C-3.99638672 43.34306641 -2.87167969 43.34628906 -1.71289062 43.34960938 C-0.52888672 43.35798828 0.65511719 43.36636719 1.875 43.375 C3.06287109 43.37951172 4.25074219 43.38402344 5.47460938 43.38867188 C8.42062226 43.40050325 11.36653681 43.41698713 14.3125 43.4375 C12.48535941 53.38652854 6.3366808 60.55853167 -1.6875 66.4375 C-11.60133725 72.46972901 -23.51248527 73.0601009 -34.77734375 70.82421875 C-42.3697279 68.10151543 -49.26360384 62.63859585 -53.125 55.5 C-56.92996276 46.51121183 -57.85657255 37.363499 -54.8984375 27.91796875 C-53.95233817 25.66040653 -52.89842904 23.5638093 -51.6875 21.4375 C-51.33816406 20.81101562 -50.98882812 20.18453125 -50.62890625 19.5390625 C-46.77233949 13.42727157 -41.03929552 9.88337258 -34.5 7.0625 C-25.09374446 5.52049089 -17.06902884 5.24748229 -8.7734375 10.34375 C-6.48962505 11.74708586 -6.48962505 11.74708586 -2.6875 11.4375 C-10.17760792 6.0364698 -17.10621426 2.10956742 -26.6875 3.4375 C-38.53930171 6.40934818 -47.0030914 12.24144826 -53.3125 22.69140625 C-56.42679569 28.9111502 -56.95414427 33.98088809 -56.8125 40.8125 C-56.79896484 42.05966797 -56.79896484 42.05966797 -56.78515625 43.33203125 C-56.7617622 45.36731337 -56.72589725 47.40244564 -56.6875 49.4375 C-61.48910032 44.93897198 -61.48984731 38.88839335 -62 32.5625 C-61.59642584 21.41936897 -57.54177307 11.18494327 -49.546875 3.3359375 C-34.58335783 -8.95926018 -16.60701217 -9.77716587 0 0 Z " fill="#F3F3F4" transform="translate(460.6875,37.5625)"/>
<path d="M0 0 C5.445 -0.0825 10.89 -0.165 16.5 -0.25 C18.20220703 -0.28641602 19.90441406 -0.32283203 21.65820312 -0.36035156 C30.47282788 -0.47171848 37.04605631 -0.27492824 44.0234375 5.74609375 C44.69246094 6.58333984 44.69246094 6.58333984 45.375 7.4375 C45.83648437 7.99308594 46.29796875 8.54867187 46.7734375 9.12109375 C50.50238953 14.83327823 50.61046692 20.37071076 50 27 C47.96904528 33.52043356 44.69508592 38.47447967 38.6875 41.875 C37.800625 42.24625 36.91375 42.6175 36 43 C37.37756832 47.4675951 39.14340845 51.5087788 41.2578125 55.67578125 C41.56572723 56.28640915 41.87364197 56.89703705 42.19088745 57.52616882 C43.16509484 59.45691151 44.14466538 61.3848622 45.125 63.3125 C46.1117305 65.25835174 47.09727844 67.20478042 48.08053589 69.15238953 C48.96660981 70.90670509 49.85650361 72.65908974 50.74658203 74.41137695 C52 77 52 77 52 78 C43.75 78 35.5 78 27 78 C25.68 75.36 24.36 72.72 23 70 C22.67 72.64 22.34 75.28 22 78 C14.74 78 7.48 78 0 78 C-0.11508477 72.83908735 -0.21452146 67.68266014 -0.2746582 62.52148438 C-0.29973467 60.76774985 -0.33380495 59.01411914 -0.37719727 57.26074219 C-0.43815604 54.73346294 -0.46627719 52.20757019 -0.48828125 49.6796875 C-0.51408768 48.90132538 -0.5398941 48.12296326 -0.56648254 47.3210144 C-0.56849367 43.37861705 -0.21834148 40.71646058 2.17138672 37.5012207 C5.37286239 34.67029388 6.55229397 34.26400258 10.74609375 34.30078125 C11.83083984 34.28853516 12.91558594 34.27628906 14.03320312 34.26367188 C15.71833008 34.2878418 15.71833008 34.2878418 17.4375 34.3125 C28.34487943 34.49814676 28.34487943 34.49814676 37.8203125 29.58203125 C40.13767699 26.47430735 40.09658292 22.76673402 40 19 C38.81158446 15.22503299 37.87065056 13.58560775 34.58984375 11.37890625 C29.60345078 9.46356706 24.92500504 9.43217753 19.625 9.3125 C18.60277344 9.27833984 17.58054688 9.24417969 16.52734375 9.20898438 C14.0186041 9.1269228 11.50932115 9.06177446 9 9 C9 13.62 9 18.24 9 23 C15.27 23 21.54 23 28 23 C28 22.34 28 21.68 28 21 C23.05 21 18.1 21 13 21 C13 18.03 13 15.06 13 12 C16.06463399 11.83759545 19.12064274 11.71895186 22.1875 11.625 C23.05181641 11.57472656 23.91613281 11.52445313 24.80664062 11.47265625 C31.05940553 11.32891453 31.05940553 11.32891453 33.70922852 13.21948242 C36.08319272 15.90760418 37.6889418 18.4403143 37.5625 22.0625 C36.94840565 26.36116046 36.0775461 28.01296996 33 31 C30.51588478 32.24205761 28.76159193 32.15762354 25.984375 32.2109375 C24.47810547 32.25347656 24.47810547 32.25347656 22.94140625 32.296875 C20.8295958 32.34857171 18.71759247 32.39295491 16.60546875 32.4296875 C10.95329327 32.60293426 6.94533294 32.97785209 2 36 C1.34 36 0.68 36 0 36 C0 24.12 0 12.24 0 0 Z M9 44 C9 52.25 9 60.5 9 69 C10.32 69 11.64 69 13 69 C13 61.41 13 53.82 13 46 C15.97 46 18.94 46 22 46 C22.35191406 47.21042969 22.35191406 47.21042969 22.7109375 48.4453125 C24.30000035 52.8272737 26.40649114 56.78462429 28.625 60.875 C29.04523438 61.65875 29.46546875 62.4425 29.8984375 63.25 C30.9281022 65.16892057 31.96347567 67.08477603 33 69 C34.32 68.67 35.64 68.34 37 68 C31.06 56.12 31.06 56.12 25 44 C19.72 44 14.44 44 9 44 Z " fill="#F5F5F6" transform="translate(231,31)"/>
<path d="M0 0 C15.18 0 30.36 0 46 0 C46 7.26 46 14.52 46 22 C38.08 22 30.16 22 22 22 C22 22.99 22 23.98 22 25 C19.03 25 16.06 25 13 25 C13 20.71 13 16.42 13 12 C20.92 12 28.84 12 37 12 C37 11.01 37 10.02 37 9 C28.09 9 19.18 9 10 9 C10 15.27 10 21.54 10 28 C20.23 28 30.46 28 41 28 C41 35.26 41 42.52 41 50 C30.77 50 20.54 50 10 50 C10 56.27 10 62.54 10 69 C18.91 69 27.82 69 37 69 C37 68.01 37 67.02 37 66 C29.08 66 21.16 66 13 66 C13 62.04 13 58.08 13 54 C15.97 54 18.94 54 22 54 C22 54.99 22 55.98 22 57 C29.92 57 37.84 57 46 57 C46 63.93 46 70.86 46 78 C30.82 78 15.64 78 0 78 C-0.061875 73.33875 -0.12375 68.6775 -0.1875 63.875 C-0.21481201 62.41562012 -0.24212402 60.95624023 -0.27026367 59.45263672 C-0.27775635 58.29006348 -0.28524902 57.12749023 -0.29296875 55.9296875 C-0.3086792 54.74616699 -0.32438965 53.56264648 -0.34057617 52.34326172 C0.04381846 48.56985659 1.00823338 46.21211331 3 43 C6.49336818 40.67108788 7.86007865 40.76448857 11.98046875 40.8046875 C13.72553711 40.81435547 13.72553711 40.81435547 15.50585938 40.82421875 C17.32827148 40.84935547 17.32827148 40.84935547 19.1875 40.875 C20.41404297 40.88402344 21.64058594 40.89304688 22.90429688 40.90234375 C25.93639295 40.92593983 28.96809938 40.95886159 32 41 C32 40.01 32 39.02 32 38 C27.79114753 38.11031086 23.58315446 38.24083992 19.375 38.375 C18.18519531 38.4059375 16.99539063 38.436875 15.76953125 38.46875 C14.03896484 38.52675781 14.03896484 38.52675781 12.2734375 38.5859375 C11.21560059 38.6173584 10.15776367 38.6487793 9.06787109 38.68115234 C5.43924052 38.94640429 5.43924052 38.94640429 0 41 C0 27.47 0 13.94 0 0 Z " fill="#F6F6F7" transform="translate(629,31)"/>
<path d="M0 0 C15.18 0 30.36 0 46 0 C46 7.26 46 14.52 46 22 C38.08 22 30.16 22 22 22 C22 22.99 22 23.98 22 25 C19.03 25 16.06 25 13 25 C13 20.71 13 16.42 13 12 C20.92 12 28.84 12 37 12 C37 11.01 37 10.02 37 9 C27.76 9 18.52 9 9 9 C9 15.27 9 21.54 9 28 C19.56 28 30.12 28 41 28 C41 35.26 41 42.52 41 50 C30.44 50 19.88 50 9 50 C9 56.27 9 62.54 9 69 C18.24 69 27.48 69 37 69 C37 68.01 37 67.02 37 66 C29.08 66 21.16 66 13 66 C13 62.04 13 58.08 13 54 C15.97 54 18.94 54 22 54 C22 54.99 22 55.98 22 57 C29.92 57 37.84 57 46 57 C46 63.93 46 70.86 46 78 C30.82 78 15.64 78 0 78 C-0.0825 72.988125 -0.165 67.97625 -0.25 62.8125 C-0.28641602 61.23960205 -0.32283203 59.6667041 -0.36035156 58.04614258 C-0.3703418 56.79986084 -0.38033203 55.5535791 -0.390625 54.26953125 C-0.41157227 52.99698486 -0.43251953 51.72443848 -0.45410156 50.41333008 C0.07680464 46.42268512 1.18928487 44.82084207 4 42 C6.71401294 40.64299353 8.84846316 40.8876139 11.8828125 40.90234375 C13.04941406 40.90556641 14.21601563 40.90878906 15.41796875 40.91210938 C16.64128906 40.92048828 17.86460937 40.92886719 19.125 40.9375 C20.35605469 40.94201172 21.58710938 40.94652344 22.85546875 40.95117188 C25.90369392 40.9629867 28.95182314 40.97945972 32 41 C32 40.01 32 39.02 32 38 C27.60365896 38.11005392 23.20816021 38.24064462 18.8125 38.375 C17.56662109 38.4059375 16.32074219 38.436875 15.03710938 38.46875 C13.83505859 38.50742188 12.63300781 38.54609375 11.39453125 38.5859375 C10.28956299 38.6173584 9.18459473 38.6487793 8.04614258 38.68115234 C4.5813033 38.90385447 4.5813033 38.90385447 0 41 C0 27.47 0 13.94 0 0 Z " fill="#F6F6F7" transform="translate(289,31)"/>
<path d="M0 0 C7.92 0 15.84 0 24 0 C25.753125 3.09375 27.50625 6.1875 29.3125 9.375 C29.88009033 10.32810059 30.44768066 11.28120117 31.0324707 12.26318359 C34.39924855 18.59492942 34.39924855 18.59492942 33.17724609 22.89550781 C31.92594336 25.39811329 30.59387946 27.70271108 29 30 C26.75564079 27.92733168 25.31595919 26.00788067 23.95703125 23.27734375 C23.43012695 22.22256836 23.43012695 22.22256836 22.89257812 21.14648438 C22.53615234 20.41751953 22.17972656 19.68855469 21.8125 18.9375 C21.44447266 18.20466797 21.07644531 17.47183594 20.69726562 16.71679688 C18 11.26721939 18 11.26721939 18 9 C17.01 9 16.02 9 15 9 C19.29 17.58 23.58 26.16 28 35 C30.59312896 31.54249472 32.5927095 28.15599806 34.5390625 24.3359375 C34.86538666 23.70265533 35.19171082 23.06937317 35.52792358 22.41690063 C36.56376006 20.40469932 37.59443245 18.38990404 38.625 16.375 C39.32518391 15.01284759 40.02570131 13.65086655 40.7265625 12.2890625 C43.88657465 6.15636381 43.88657465 6.15636381 47 0 C54.92 0 62.84 0 71 0 C70.18681211 4.06593947 69.52955466 6.2738716 67.6640625 9.78125 C67.18171143 10.69406738 66.69936035 11.60688477 66.20239258 12.54736328 C65.68185303 13.5217334 65.16131348 14.49610352 64.625 15.5 C64.09350342 16.52464355 63.56200684 17.54928711 63.0144043 18.60498047 C60.42764356 23.56889897 57.78093311 28.42950135 54.79296875 33.1640625 C45.75793529 47.93138881 45.4929924 61.08009537 46 78 C39.07 78 32.14 78 25 78 C25 69.42 25 60.84 25 52 C27.97 52 30.94 52 34 52 C34 57.61 34 63.22 34 69 C34.99 69 35.98 69 37 69 C36.79117188 67.74574219 36.58234375 66.49148437 36.3671875 65.19921875 C34.23343366 45.46986084 43.74076037 30.60205521 53.23413086 14.07495117 C54.19356222 12.40426985 55.13841024 10.72317953 56 9 C55.01 9 54.02 9 53 9 C52.75072754 9.82902832 52.50145508 10.65805664 52.24462891 11.51220703 C50.82929881 15.47835174 49.03495542 19.08022223 47.0859375 22.8046875 C46.71143463 23.5286673 46.33693176 24.25264709 45.95108032 24.99856567 C44.76311189 27.2928419 43.56916198 29.58394246 42.375 31.875 C41.56470597 33.43729353 40.75480597 34.99979151 39.9453125 36.5625 C37.96809315 40.37738061 35.98550614 44.18942626 34 48 C30.37 48 26.74 48 23 48 C22.5875 47.16976318 22.175 46.33952637 21.75 45.48413086 C19.83555583 41.63414303 17.91833467 37.78555029 16 33.9375 C15.65774384 33.25037933 15.31548767 32.56325867 14.96286011 31.85531616 C10.54176135 22.98536216 6.05761918 14.17319102 1.22265625 5.51953125 C0 3 0 3 0 0 Z " fill="#F4F4F5" transform="translate(338,31)"/>
<path d="M0 0 C2.015625 1.1875 2.015625 1.1875 3.875 2.625 C6.53885381 4.56185501 7.63757729 5.0137389 10.98828125 4.88671875 C13.05837779 4.51516296 15.12038386 4.0936452 17.16796875 3.61328125 C19.87988018 3.02601215 22.23706381 2.8939275 25 3 C27 8.75 27 8.75 27 11 C23.7 11 20.4 11 17 11 C18.32 11.66 19.64 12.32 21 13 C20.67 15.64 20.34 18.28 20 21 C17.04590299 19.62845496 14.55991624 18.01136276 12 16 C11.34 18.64 10.68 21.28 10 24 C4.25 22.125 4.25 22.125 2 21 C-4.71048967 20.47762655 -10.12761644 20.3862255 -16 24 C-16.99 24 -17.98 24 -19 24 C-19.75 21.25 -19.75 21.25 -20 18 C-18.0625 15.625 -18.0625 15.625 -16 14 C-17.65 14 -19.3 14 -21 14 C-19.84084218 7.56023431 -17.3101217 4.73211384 -12 1 C-8.26953204 -0.86523398 -4.06070357 -0.57666796 0 0 Z " fill="#F4F4F5" transform="translate(70,35)"/>
<path d="M0 0 C7.92 0 15.84 0 24 0 C24 2.97 24 5.94 24 9 C16.41 9 8.82 9 1 9 C1 16.59 1 24.18 1 32 C-1.97 32 -4.94 32 -8 32 C-8 24.08 -8 16.16 -8 8 C-5.36 8 -2.72 8 0 8 C0 5.36 0 2.72 0 0 Z " fill="#F6F6F7" transform="translate(111,103)"/>
<path d="M0 0 C7.92 0 15.84 0 24 0 C24 2.64 24 5.28 24 8 C26.64 8 29.28 8 32 8 C32 15.92 32 23.84 32 32 C29.03 32 26.06 32 23 32 C23 24.41 23 16.82 23 9 C15.41 9 7.82 9 0 9 C0 6.03 0 3.06 0 0 Z " fill="#F6F6F7" transform="translate(0,103)"/>
<path d="M0 0 C2.97 0 5.94 0 9 0 C9 7.59 9 15.18 9 23 C16.59 23 24.18 23 32 23 C32 25.97 32 28.94 32 32 C24.08 32 16.16 32 8 32 C8 29.36 8 26.72 8 24 C5.36 24 2.72 24 0 24 C0 16.08 0 8.16 0 0 Z " fill="#F5F5F6" transform="translate(103,0)"/>
<path d="M0 0 C2.97 0 5.94 0 9 0 C9 7.92 9 15.84 9 24 C6.36 24 3.72 24 1 24 C1 26.64 1 29.28 1 32 C-6.92 32 -14.84 32 -23 32 C-23 29.03 -23 26.06 -23 23 C-15.41 23 -7.82 23 0 23 C0 15.41 0 7.82 0 0 Z " fill="#F5F5F6" transform="translate(23,0)"/>
<path d="M0 0 C-1.51024517 8.20380092 -4.2344957 15.89751769 -7.05810547 23.72314453 C-7.88118619 26.01724222 -8.68078054 28.31875379 -9.48046875 30.62109375 C-10.00378633 32.08123959 -10.52847616 33.54089452 -11.0546875 35 C-11.2902536 35.68843994 -11.5258197 36.37687988 -11.76852417 37.08618164 C-12.47607422 39 -12.47607422 39 -14 42 C-16.23450314 43.01736923 -17.57865022 43 -20 43 C-21.485 43.495 -21.485 43.495 -23 44 C-22.40585049 38.67261857 -21.15093147 33.98664892 -19.34765625 28.94921875 C-19.08746201 28.2092012 -18.82726776 27.46918365 -18.55918884 26.70674133 C-18.01180255 25.15517302 -17.46118108 23.60474261 -16.9074707 22.05541992 C-16.05986073 19.6801038 -15.225584 17.30039352 -14.39257812 14.91992188 C-13.85755705 13.40857561 -13.32177655 11.89749793 -12.78515625 10.38671875 C-12.53613052 9.67529221 -12.2871048 8.96386566 -12.03053284 8.23088074 C-10.23028452 3.23028452 -10.23028452 3.23028452 -8 1 C-5.22184257 0.28765194 -2.87628285 0 0 0 Z M-6 5 C-8.50294991 10.37670721 -10.75968636 15.8108136 -12.8125 21.375 C-13.25207031 22.55835937 -13.69164062 23.74171875 -14.14453125 24.9609375 C-15.30920626 28.00813717 -15.30920626 28.00813717 -14 31 C-12.46681219 27.04634027 -10.95056575 23.08639947 -9.4375 19.125 C-8.78104492 17.43310547 -8.78104492 17.43310547 -8.11132812 15.70703125 C-7.70205078 14.63066406 -7.29277344 13.55429688 -6.87109375 12.4453125 C-6.48880615 11.45031738 -6.10651855 10.45532227 -5.71264648 9.43017578 C-4.70636645 7.01990627 -4.70636645 7.01990627 -6 5 Z M-16 31 C-16.33 32.98 -16.66 34.96 -17 37 C-16.34 36.01 -15.68 35.02 -15 34 C-15.33 33.01 -15.66 32.02 -16 31 Z M-18 37 C-17 40 -17 40 -17 40 Z " fill="#F0F0F1" transform="translate(77,61)"/>
<path d="M0 0 C0.4906219 3.12771462 0.70581845 5.89647475 0 9 C-2.38336593 11.28928569 -4.99388321 12.66469366 -8 14 C-7.13375 14.38478516 -7.13375 14.38478516 -6.25 14.77734375 C-3.85105994 16.01429722 -1.95135987 17.12566749 0 19 C0.70581845 22.10352525 0.4906219 24.87228538 0 28 C-4.64555684 27.42483582 -8.22307636 25.40304269 -12.1875 23.0625 C-12.81591797 22.70220703 -13.44433594 22.34191406 -14.09179688 21.97070312 C-16.66016418 20.47912724 -18.89113712 19.10886288 -21 17 C-21 16.01 -21 15.02 -21 14 C-20.01 14 -19.02 14 -18 14 C-18.99 13.01 -19.98 12.02 -21 11 C-5.92134831 0 -5.92134831 0 0 0 Z M-5 5 C-5.33 5.66 -5.66 6.32 -6 7 C-5.34 7 -4.68 7 -4 7 C-4.33 6.34 -4.66 5.68 -5 5 Z M-8 7 C-8.99 7.99 -9.98 8.98 -11 10 C-9.35 9.34 -7.7 8.68 -6 8 C-6.66 7.67 -7.32 7.34 -8 7 Z M-13 10 C-13.33 10.66 -13.66 11.32 -14 12 C-12.68 12.33 -11.36 12.66 -10 13 C-10.33 12.01 -10.66 11.02 -11 10 C-11.66 10 -12.32 10 -13 10 Z M-13 17 C-10.45543849 19.96865509 -7.51005335 21.3619751 -4 23 C-4 22.34 -4 21.68 -4 21 C-5.670625 20.01 -5.670625 20.01 -7.375 19 C-8.00148438 18.62875 -8.62796875 18.2575 -9.2734375 17.875 C-10.97472667 16.84931652 -10.97472667 16.84931652 -13 17 Z " fill="#EFEFF0" transform="translate(49,69)"/>
<path d="M0 0 C4.94212939 0.56508844 8.57218513 2.79695636 12.75 5.3125 C13.43449219 5.70373047 14.11898437 6.09496094 14.82421875 6.49804688 C19.83303807 9.48846079 19.83303807 9.48846079 20.70019531 12.14526367 C20.79913086 12.75732666 20.89806641 13.36938965 21 14 C19.68 14 18.36 14 17 14 C17.99 14.66 18.98 15.32 20 16 C20 16.66 20 17.32 20 18 C18.48706055 19.14501953 18.48706055 19.14501953 16.38671875 20.3828125 C15.63326172 20.82753906 14.87980469 21.27226563 14.10351562 21.73046875 C13.30623047 22.19066406 12.50894531 22.65085937 11.6875 23.125 C10.90181641 23.59292969 10.11613281 24.06085938 9.30664062 24.54296875 C3.38534074 28 3.38534074 28 0 28 C-0.4906219 24.87228538 -0.70581845 22.10352525 0 19 C2.38336593 16.71071431 4.99388321 15.33530634 8 14 C7.4225 13.74347656 6.845 13.48695312 6.25 13.22265625 C3.85105994 11.98570278 1.95135987 10.87433251 0 9 C-0.70581845 5.89647475 -0.4906219 3.12771462 0 0 Z M3 5 C3 5.66 3 6.32 3 7 C4.32 7.33 5.64 7.66 7 8 C6.02149805 6.97895449 5.02019573 5.9793879 4 5 C3.67 5 3.34 5 3 5 Z M11 10 C11.33 10.66 11.66 11.32 12 12 C12.66 11.67 13.32 11.34 14 11 C13.01 10.67 12.02 10.34 11 10 Z M10 15 C9.67 16.32 9.34 17.64 9 19 C10.32 18.67 11.64 18.34 13 18 C12.67 17.01 12.34 16.02 12 15 C11.34 15 10.68 15 10 15 Z M7 19 C6.01 19.99 5.02 20.98 4 22 C5.65 21.34 7.3 20.68 9 20 C8.34 19.67 7.68 19.34 7 19 Z " fill="#F0F0F1" transform="translate(82,69)"/>
<path d="M0 0 C2.97 0 5.94 0 9 0 C9 7.92 9 15.84 9 24 C6.03 24 3.06 24 0 24 C0 16.08 0 8.16 0 0 Z " fill="#F6F6F7" transform="translate(83,111)"/>
<path d="M0 0 C2.97 0 5.94 0 9 0 C9 7.92 9 15.84 9 24 C6.03 24 3.06 24 0 24 C0 16.08 0 8.16 0 0 Z " fill="#F6F6F7" transform="translate(63,111)"/>
<path d="M0 0 C2.97 0 5.94 0 9 0 C9 7.92 9 15.84 9 24 C6.03 24 3.06 24 0 24 C0 16.08 0 8.16 0 0 Z " fill="#F6F6F7" transform="translate(43,111)"/>
<path d="M0 0 C7.92 0 15.84 0 24 0 C24 2.97 24 5.94 24 9 C16.08 9 8.16 9 0 9 C0 6.03 0 3.06 0 0 Z " fill="#F6F6F7" transform="translate(111,83)"/>
<path d="M0 0 C7.92 0 15.84 0 24 0 C24 2.97 24 5.94 24 9 C16.08 9 8.16 9 0 9 C0 6.03 0 3.06 0 0 Z " fill="#F6F6F7" transform="translate(0,83)"/>
<path d="M0 0 C7.92 0 15.84 0 24 0 C24 2.97 24 5.94 24 9 C16.08 9 8.16 9 0 9 C0 6.03 0 3.06 0 0 Z " fill="#F6F6F7" transform="translate(111,63)"/>
<path d="M0 0 C7.92 0 15.84 0 24 0 C24 2.97 24 5.94 24 9 C16.08 9 8.16 9 0 9 C0 6.03 0 3.06 0 0 Z " fill="#F6F6F7" transform="translate(0,63)"/>
<path d="M0 0 C7.92 0 15.84 0 24 0 C24 2.97 24 5.94 24 9 C16.08 9 8.16 9 0 9 C0 6.03 0 3.06 0 0 Z " fill="#F6F6F7" transform="translate(111,43)"/>
<path d="M0 0 C7.92 0 15.84 0 24 0 C24 2.97 24 5.94 24 9 C16.08 9 8.16 9 0 9 C0 6.03 0 3.06 0 0 Z " fill="#F6F6F7" transform="translate(0,43)"/>
<path d="M0 0 C2.97 0 5.94 0 9 0 C9 7.92 9 15.84 9 24 C6.03 24 3.06 24 0 24 C0 16.08 0 8.16 0 0 Z " fill="#F6F6F7" transform="translate(83,0)"/>
<path d="M0 0 C2.97 0 5.94 0 9 0 C9 7.92 9 15.84 9 24 C6.03 24 3.06 24 0 24 C0 16.08 0 8.16 0 0 Z " fill="#F6F6F7" transform="translate(63,0)"/>
<path d="M0 0 C2.97 0 5.94 0 9 0 C9 7.92 9 15.84 9 24 C6.03 24 3.06 24 0 24 C0 16.08 0 8.16 0 0 Z " fill="#F6F6F7" transform="translate(43,0)"/>
</svg>
